<svg width="24" height="24" viewBox="0 0 24 24" fill="none" xmlns="http://www.w3.org/2000/svg">
<path fill-rule="evenodd" clip-rule="evenodd" d="M12.24 12C15.5537 12 18.24 9.31371 18.24 6C18.24 2.68629 15.5537 0 12.24 0C8.92628 0 6.23999 2.68629 6.23999 6C6.23999 9.31371 8.92628 12 12.24 12Z" fill="#666078"/>
<path fill-rule="evenodd" clip-rule="evenodd" d="M12.24 15.84C13.106 15.84 14.1639 15.4763 15.1263 15.0368C16.9038 14.225 18.9903 13.9048 20.4334 15.2222C22.1167 16.7589 24 19.4867 24 24H0C0 19.4631 2.00042 16.678 3.77685 15.0991C5.28374 13.7598 7.43561 14.1079 9.25526 14.9758C10.2463 15.4485 11.3389 15.84 12.24 15.84Z" fill="#666078"/>
</svg>
